<?xml version="1.0" encoding="utf-8"?>
<!-- Generator: Adobe Illustrator 24.2.1, SVG Export Plug-In . SVG Version: 6.00 Build 0)  -->
<svg version="1.1" id="Layer_1" xmlns="http://www.w3.org/2000/svg" xmlns:xlink="http://www.w3.org/1999/xlink" x="0px" y="0px"
	 viewBox="0 0 24 24" style="enable-background:new 0 0 24 24;" xml:space="preserve">
<style type="text/css">
	.st0{fill:#FEE856;}
</style>
<path class="st0" d="M19.7,4.2v18.1c0,0.3-0.3,0.5-0.5,0.5c-0.1,0-0.2,0-0.3-0.1l-6.9-4l-6.9,4c-0.3,0.1-0.6,0.1-0.8-0.2
	c0-0.1-0.1-0.2-0.1-0.3V4.2c0-1.8,1.5-3.3,3.3-3.3h8.8C18.2,0.9,19.7,2.4,19.7,4.2z"/>
<path class="st0" d="M16.4,0.9H7.6c-1.8,0-3.3,1.5-3.3,3.3v18.1c0,0.1,0,0.2,0.1,0.3c0.2,0.3,0.5,0.3,0.8,0.2l6.9-4l6.9,4
	c0.1,0,0.2,0.1,0.3,0.1c0.3,0,0.5-0.2,0.5-0.5V4.2C19.7,2.4,18.2,0.9,16.4,0.9z M18.6,21.4l-6.3-3.6c-0.1-0.1-0.2-0.1-0.3-0.1
	s-0.2,0-0.3,0.1l-6.3,3.6V4.2C5.4,3,6.4,2,7.6,2h8.8c1.2,0,2.2,1,2.2,2.2V21.4z"/>
</svg>
