<svg xmlns="http://www.w3.org/2000/svg" width="24" height="24" viewBox="0 0 24 24"><g fill="none" stroke="#fff" stroke-linecap="round" stroke-linejoin="round" stroke-miterlimit="10"><path d="M2.5 15.502L.5 18.5h7v-2.998zM7.5 23.5v-12l4-4 4 4.002V23.5M15.5 11.5v-10h8v22M1.5 18.5v5M7.5 11.5h7.999M18.5 3.5v2M20.5 3.5v2M18.5 7.5v2M20.5 7.5v2M18.5 11.5v2M20.5 11.5v2M18.5 15.5v2M20.5 15.5v2"/><path d="M9.5 13.5h4v3.002h-4zM9.5 18.5h4v3.002h-4zM18.5 19.5v2M20.5 19.5v2M3.5 23.5v-2.998h2V23.5M23.5 23.5h-22M2.5 6.502L1 4.5 2.5 3l1-1.5H5L6.5 3h2L10 4.5 8.5 6.502z"/></g><path fill="none" d="M0 0h24v24H0z"/></svg>