<?xml version="1.0" encoding="utf-8"?>
<!-- Generator: Adobe Illustrator 24.2.1, SVG Export Plug-In . SVG Version: 6.00 Build 0)  -->
<svg version="1.1" id="Layer_1" xmlns="http://www.w3.org/2000/svg" xmlns:xlink="http://www.w3.org/1999/xlink" x="0px" y="0px"
	 viewBox="0 0 64 64" style="enable-background:new 0 0 64 64;" xml:space="preserve">
<style type="text/css">
	.st0{fill:#FFFFFF;}
</style>
<path class="st0" d="M61,28c0.6,0,1-0.4,1-1v-6c0-0.6-0.4-1-1-1h-3v-1c0-0.6-0.4-1-1-1H25c-0.1,0-0.2,0-0.3,0.1l-5.1-3.9
	c-0.4-0.3-0.8-0.3-1.2,0l-16,12C2.1,26.4,2,26.7,2,27v6c0,0.4,0.2,0.7,0.5,0.9c0.3,0.2,0.7,0.2,1,0L6,32.3V49c0,0.6,0.4,1,1,1h14h6
	h4h26c0.6,0,1-0.4,1-1v-1h3c0.6,0,1-0.4,1-1v-6c0-0.6-0.4-1-1-1h-3v-2h3c0.6,0,1-0.4,1-1v-6c0-0.6-0.4-1-1-1h-3v-2H61z M60,22v4h-2
	v-4H60z M4,27.5l15-11.3l15,11.3v3.7l-14.5-9C19.4,22.1,19.2,22,19,22s-0.4,0.1-0.5,0.2L4,31.2V27.5z M8,31.1l11-6.9l11,6.9V48h-2
	V37c0-0.6-0.4-1-1-1h-6c-0.6,0-1,0.4-1,1v11H8V31.1z M22,48V38h4v10H22z M56,48H32V32.3l2.5,1.5c0.2,0.1,0.3,0.2,0.5,0.2
	c0.2,0,0.3,0,0.5-0.1c0.3-0.2,0.5-0.5,0.5-0.9v-6c0-0.3-0.1-0.6-0.4-0.8L27.3,20H56v1v6v4v6v4v6V48z M60,42v4h-2v-4H60z M60,32v4h-2
	v-4H60z"/>
<path class="st0" d="M50,23H40c-0.6,0-1,0.4-1,1v6c0,0.6,0.4,1,1,1h10c0.6,0,1-0.4,1-1v-6C51,23.4,50.6,23,50,23z M49,29h-8v-4h8V29
	z M50,35H40c-0.6,0-1,0.4-1,1s0.4,1,1,1h10c0.6,0,1-0.4,1-1S50.6,35,50,35z M50,39H40c-0.6,0-1,0.4-1,1s0.4,1,1,1h10
	c0.6,0,1-0.4,1-1S50.6,39,50,39z M50,43H40c-0.6,0-1,0.4-1,1s0.4,1,1,1h10c0.6,0,1-0.4,1-1S50.6,43,50,43z"/>
</svg>
