<svg xmlns="http://www.w3.org/2000/svg" viewBox="0 0 64 64"><g data-name="Outline"><circle cx="32" cy="57" r="1"/><path d="M42.633,45.377a23,23,0,1,0-21.266,0C8.512,46.344,2,49.073,2,53.5,2,60.525,18.314,62,32,62s30-1.475,30-8.5C62,49.073,55.488,46.344,42.633,45.377ZM11,25A21,21,0,1,1,40.72,44.1a1.021,1.021,0,0,0-.292.2L35.42,49.327l-.033.033L32.658,52.1a.993.993,0,0,1-1.266.046l-7.82-7.836a1.021,1.021,0,0,0-.292-.2A21.062,21.062,0,0,1,11,25ZM32,60C14.729,60,4,57.509,4,53.5c0-3.277,7.166-5.553,19.667-6.267l1.943,1.946C19.329,49.532,11,50.555,11,53.5c0,3.328,10.618,4.2,16.948,4.429h.036a1,1,0,0,0,.035-2C18.445,55.588,14,54.214,13.107,53.5c.879-.7,5.19-2.036,14.413-2.408l2.5,2.51a2.964,2.964,0,0,0,1.956.732,3.093,3.093,0,0,0,2.043-.779l2.458-2.463C45.7,51.464,50.014,52.8,50.893,53.5c-.9.714-5.337,2.088-14.91,2.43a1,1,0,0,0,.035,2h.036C42.383,57.7,53,56.828,53,53.5c0-2.944-8.328-3.968-14.609-4.321l1.942-1.946C52.834,47.947,60,50.223,60,53.5,60,57.509,49.271,60,32,60Z"/><path d="M51,25A19,19,0,1,0,32,44,19.021,19.021,0,0,0,51,25ZM15,25A17,17,0,1,1,32,42,17.019,17.019,0,0,1,15,25Z"/><path d="M41,32.93a1,1,0,0,0,.5-.868V23.417l2.5-.962V28a1,1,0,0,0,2,0V21a1.081,1.081,0,0,0-.649-.931l-13-5a1,1,0,0,0-.719,0l-12.986,5a1,1,0,0,0,0,1.866L22.5,23.413v8.649a1,1,0,0,0,.5.868A17.971,17.971,0,0,0,32,35.5,17.932,17.932,0,0,0,41,32.93ZM21.793,21l10.2-3.927L42.207,21l-10.2,3.927ZM24.5,31.474V24.183l7.146,2.75a1,1,0,0,0,.719,0L39.5,24.188v7.287A14.826,14.826,0,0,1,24.5,31.474Z"/></g></svg>