<?xml version="1.0" encoding="utf-8"?>
<!-- Generator: Adobe Illustrator 24.2.1, SVG Export Plug-In . SVG Version: 6.00 Build 0)  -->
<svg version="1.1" id="Layer_1" xmlns="http://www.w3.org/2000/svg" xmlns:xlink="http://www.w3.org/1999/xlink" x="0px" y="0px"
	 viewBox="0 0 64 64" style="enable-background:new 0 0 64 64;" xml:space="preserve">
<style type="text/css">
	.st0{fill:#FFFFFF;}
</style>
<path class="st0" d="M53,11h-9V3H20v8h-9v4H3v8h2v38h54V23h2v-8h-8V11z M51,13v4h-7v-4H51z M22,5h20v20H22V5z M13,13h7v4h-7V13z
	 M5,17h6v2h2v2H5V17z M13,59H7V23h6V59z M18,59V33h13v26H18z M33,59V33h13v26H33z M49,59h-1V31H16v28h-1V19h5v8h24v-8h5V59z M57,59
	h-6V23h6V59z M59,17v4h-8v-2h2v-2H59z"/>
<rect x="34" y="44" class="st0" width="2" height="4"/>
<rect x="28" y="44" class="st0" width="2" height="4"/>
<path class="st0" d="M41,9H23v12h18V9z M36.5,11L32,13.8L27.5,11H36.5z M25,19v-7.2l7,4.4l7-4.4V19H25z"/>
</svg>
