<svg xmlns="http://www.w3.org/2000/svg" viewBox="0 0 64 64"><g data-name="Government Office"><path fill="#fff" d="M59.41,57.33H4.59a1,1,0,0,1-1-1V31a1,1,0,0,1,1-1H59.41a1,1,0,0,1,1,1V56.33A1,1,0,0,1,59.41,57.33Zm-53.82-2H58.41V32H5.59Z"/><path fill="#fff" d="M24.38 35.47H4.59a1 1 0 0 1 0-2H24.38a1 1 0 0 1 0 2zM59.41 35.47H28.33a1 1 0 0 1 0-2H59.41a1 1 0 0 1 0 2z"/><path fill="#fff" d="M14.38 38.45H13.23a1 1 0 0 1 0-2h.15v-1H8.57v1H9.7a1 1 0 1 1 0 2H7.57a1 1 0 0 1-1-1v-3a1 1 0 0 1 1-1h6.81a1 1 0 0 1 1 1v3A1 1 0 0 1 14.38 38.45zM14.38 57.33H7.57a1 1 0 0 1-1-1v-3a1 1 0 0 1 1-1h6.81a1 1 0 0 1 1 1v3A1 1 0 0 1 14.38 57.33zm-5.81-2h4.81v-1H8.57z"/><path fill="#fff" d="M8.72 54.35a1 1 0 0 1-1-1V37.45a1 1 0 0 1 2 0v15.9A1 1 0 0 1 8.72 54.35zM13.23 54.35a1 1 0 0 1-1-1V37.45a1 1 0 0 1 2 0v15.9A1 1 0 0 1 13.23 54.35zM24.38 38.45H17.57a1 1 0 0 1-1-1v-3a1 1 0 0 1 1-1h6.81a1 1 0 0 1 1 1v3A1 1 0 0 1 24.38 38.45zm-5.81-2h4.81v-1H18.57zM24.38 57.33H17.57a1 1 0 0 1-1-1v-3a1 1 0 0 1 1-1h6.81a1 1 0 0 1 1 1v3A1 1 0 0 1 24.38 57.33zm-5.81-2h4.81v-1H18.57z"/><path fill="#fff" d="M18.72 54.35a1 1 0 0 1-1-1V37.45a1 1 0 0 1 2 0v15.9A1 1 0 0 1 18.72 54.35zM23.23 54.35a1 1 0 0 1-1-1V37.45a1 1 0 0 1 2 0v15.9A1 1 0 0 1 23.23 54.35zM56.43 38.45H49.62a1 1 0 0 1-1-1v-3a1 1 0 0 1 1-1h6.81a1 1 0 0 1 1 1v3A1 1 0 0 1 56.43 38.45zm-5.81-2h4.81v-1H50.62zM56.43 57.33H49.62a1 1 0 0 1-1-1v-3a1 1 0 0 1 1-1h6.81a1 1 0 0 1 1 1v3A1 1 0 0 1 56.43 57.33zm-5.81-2h4.81v-1H50.62z"/><path fill="#fff" d="M55.28 54.35a1 1 0 0 1-1-1V37.45a1 1 0 0 1 2 0v15.9A1 1 0 0 1 55.28 54.35zM50.77 54.35a1 1 0 0 1-1-1V37.45a1 1 0 0 1 2 0v15.9A1 1 0 0 1 50.77 54.35zM46.43 38.45H39.62a1 1 0 0 1-1-1v-3a1 1 0 0 1 1-1h6.81a1 1 0 0 1 1 1v3A1 1 0 0 1 46.43 38.45zm-5.81-2h4.81v-1H40.62zM46.43 57.33H39.62a1 1 0 0 1-1-1v-3a1 1 0 0 1 1-1h1.15a1 1 0 0 1 0 2h-.15v1h4.81v-1H44a1 1 0 0 1 0-2h2.4a1 1 0 0 1 1 1v3A1 1 0 0 1 46.43 57.33z"/><path fill="#fff" d="M45.28 54.35a1 1 0 0 1-1-1V37.45a1 1 0 0 1 2 0v15.9A1 1 0 0 1 45.28 54.35zM40.77 54.35a1 1 0 0 1-1-1V37.45a1 1 0 0 1 2 0v15.9A1 1 0 0 1 40.77 54.35zM27.2 57.33a1 1 0 0 1-1-1V45.4c0-4.76 5.15-7.27 5.37-7.38a1 1 0 0 1 1.33.47 1 1 0 0 1-.47 1.34S28.2 41.91 28.2 45.4V56.33A1 1 0 0 1 27.2 57.33z"/><path fill="#fff" d="M36.8 54.33a1 1 0 0 1-1-1V45.4c0-3.49-4.19-5.55-4.23-5.58a1 1 0 1 1 .86-1.8c.22.11 5.37 2.62 5.37 7.38v7.93A1 1 0 0 1 36.8 54.33zM44.81 32H19.19a1 1 0 0 1-1-1V26.48a1 1 0 0 1 2 0V30H43.81V26.48a1 1 0 0 1 2 0V31A1 1 0 0 1 44.81 32z"/><path fill="#fff" d="M46.35,27.48H44.81a1,1,0,0,1,0-2h.54V23.82H18.65v1.66H41.77a1,1,0,0,1,0,2H17.65a1,1,0,0,1-1-1V22.82a1,1,0,0,1,1-1h28.7a1,1,0,0,1,1,1v3.66A1,1,0,0,1,46.35,27.48Z"/><path fill="#fff" d="M43.66,23.82h0a1,1,0,0,1-1-1A9.31,9.31,0,0,0,40,16.48a10.64,10.64,0,0,0-8-3,10.64,10.64,0,0,0-7.95,3,9.31,9.31,0,0,0-2.71,6.31,1,1,0,0,1-1,1,1,1,0,0,1-1-1,11.25,11.25,0,0,1,3.28-7.76A12.75,12.75,0,0,1,32,11.46a12.75,12.75,0,0,1,9.38,3.62,11.25,11.25,0,0,1,3.28,7.76A1,1,0,0,1,43.66,23.82Z"/><path fill="#fff" d="M32,13.46a1,1,0,0,1-1-1V3.67a1,1,0,0,1,2,0v8.79A1,1,0,0,1,32,13.46Z"/><path fill="#fff" d="M40.77 9.64H32a1 1 0 0 1-1-1v-5a1 1 0 0 1 1-1h8.77a1 1 0 0 1 .9.57 1 1 0 0 1-.12 1.06l-1.5 1.85L41.55 8a1 1 0 0 1 .12 1.06A1 1 0 0 1 40.77 9.64zM33 7.64h5.68L38 6.78a1 1 0 0 1 0-1.25l.69-.86H33zM62 57.33H2a1 1 0 0 1 0-2H62a1 1 0 0 1 0 2zM47 61.33H6a1 1 0 0 1 0-2H47a1 1 0 1 1 0 2zM55 61.33H51.06a1 1 0 0 1 0-2H55a1 1 0 0 1 0 2z"/></g></svg>