<?xml version="1.0" encoding="utf-8"?>
<!-- Generator: Adobe Illustrator 24.2.1, SVG Export Plug-In . SVG Version: 6.00 Build 0)  -->
<svg version="1.1" id="Layer_1" xmlns="http://www.w3.org/2000/svg" xmlns:xlink="http://www.w3.org/1999/xlink" x="0px" y="0px"
	 viewBox="0 0 48 48" style="enable-background:new 0 0 48 48;" xml:space="preserve">
<style type="text/css">
	.st0{fill:#FFFFFF;}
</style>
<path class="st0" d="M11,44c-0.3,0-0.5-0.1-0.7-0.3l-2-2C8.1,41.5,8,41.3,8,41V31c0-0.6,0.4-1,1-1s0,1.4,0,2c0,0.6,2.4,1,3,1
	c0.2,0,1-1.9,1-2c0-0.6-0.6-1,0-1s1,0.4,1,1v10c0,0.3-0.1,0.5-0.3,0.7l-2,2C11.5,43.9,11.3,44,11,44z M10,40.6l1,1l1-1v-6.8
	c-0.6,0.2-1.4,0.2-2,0V40.6z"/>
<path class="st0" d="M42,36H19c-0.6,0-1-0.4-1-1v-1c0-1.1-0.9-2-2-2h-3c-0.6,0-1-0.4-1-1v-2.4c0-0.4,0.2-0.8,0.6-0.9
	C14.1,27,15,25.6,15,24c0-1.9-1.3-3.5-3.2-3.9c-0.5-0.1-0.8-0.5-0.8-1v-8.9c0-0.3,0.2-0.7,0.5-0.9l15-9.2c0.3-0.2,0.7-0.2,1,0
	l15,9.2c0.3,0.2,0.5,0.5,0.5,0.9V35C43,35.6,42.6,36,42,36z M20,34h21V10.7L27,2.2l-14,8.6v7.6c2.4,0.8,4,3.1,4,5.7
	c0,2.2-1.2,4.1-3,5.2V30h2C18.2,30,20,31.8,20,34z"/>
<path class="st0" d="M45,13c-0.2,0-0.4,0-0.5-0.1l-3-1.8c-0.5-0.3-0.6-0.9-0.3-1.4C41.4,9.2,42,9,42.5,9.3l3,1.8
	c0.5,0.3,0.6,0.9,0.3,1.4C45.7,12.8,45.3,13,45,13z M9,13c-0.3,0-0.7-0.2-0.9-0.5C7.9,12,8,11.4,8.5,11.1l3-1.8
	C12,9,12.6,9.2,12.9,9.6s0.1,1.1-0.3,1.4l-3,1.8C9.4,13,9.2,13,9,13z M11,30c-0.8,0-1.6-0.2-2.4-0.5C6.4,28.5,5,26.4,5,24
	c0-3.3,2.7-6,6-6c0.4,0,0.8,0,1.2,0.1c2.8,0.6,4.8,3,4.8,5.9c0,2.4-1.4,4.5-3.6,5.5c-0.4,0.2-0.8,0.3-1.2,0.4C11.8,30,11.4,30,11,30
	z M11,20c-2.2,0-4,1.8-4,4c0,1.6,0.9,3,2.4,3.7c0.8,0.3,1.7,0.4,2.4,0.2c0.3-0.1,0.6-0.1,0.8-0.2C14.1,27,15,25.6,15,24
	c0-1.9-1.3-3.5-3.2-3.9C11.6,20,11.3,20,11,20z M19,48H3c-0.6,0-1-0.4-1-1V34c0-2.2,1.8-4,4-4h3c0.6,0,1,0.4,1,1v9.6l1,1l1-1V31
	c0-0.6,0.4-1,1-1h3c2.2,0,4,1.8,4,4v13C20,47.6,19.6,48,19,48z M4,46h14V34c0-1.1-0.9-2-2-2h-2v9c0,0.3-0.1,0.5-0.3,0.7l-2,2
	c-0.4,0.4-1,0.4-1.4,0l-2-2C8.1,41.5,8,41.3,8,41v-9H6c-1.1,0-2,0.9-2,2V46z M29,18h-4c-0.6,0-1-0.4-1-1s0.4-1,1-1h3v-2h-3
	c-0.6,0-1-0.4-1-1V9c0-0.6,0.4-1,1-1h4c0.6,0,1,0.4,1,1s-0.4,1-1,1h-3v2h3c0.6,0,1,0.4,1,1v4C30,17.6,29.6,18,29,18z"/>
<path class="st0" d="M27,10c-0.6,0-1-0.4-1-1V7c0-0.6,0.4-1,1-1s1,0.4,1,1v2C28,9.6,27.6,10,27,10z M27,20c-0.6,0-1-0.4-1-1v-2
	c0-0.6,0.4-1,1-1s1,0.4,1,1v2C28,19.6,27.6,20,27,20z M31,36h-8c-0.6,0-1-0.4-1-1V23c0-0.6,0.4-1,1-1h8c0.6,0,1,0.4,1,1v12
	C32,35.6,31.6,36,31,36z M24,34h6V24h-6V34z M13.6,27.8c-0.3-0.2-0.6-0.2-0.9-0.1C12.1,27.9,11.5,28,11,28c-0.5,0-1.1-0.1-1.6-0.3
	c-0.3-0.1-0.7-0.1-0.9,0.1C8.2,27.9,8,28.3,8,28.6V31c0,1.7,1.3,3,3,3s3-1.3,3-3v-2.4C14,28.3,13.8,27.9,13.6,27.8z M12,31
	c0,0.6-0.4,1-1,1s-1-0.4-1-1v-1.1c0.3,0.1,0.7,0.1,1,0.1c0.3,0,0.7,0,1-0.1V31z"/>
</svg>
