<svg xmlns="http://www.w3.org/2000/svg" xmlns:xlink="http://www.w3.org/1999/xlink" width="48" height="48" viewBox="0 0 48 48"><defs><linearGradient id="b" x1="906.952" x2="931.379" y1="515.915" y2="546.094" gradientTransform="translate(-1388.719 211.343) scale(1.53785)" gradientUnits="userSpaceOnUse" xlink:href="#a"/><linearGradient id="a"><stop offset="0" stop-color="#ffd800"/><stop offset="1" stop-color="#ff6100"/></linearGradient></defs><g transform="translate(0 -1004.362)"><rect width="48" height="48" y="1004.362" fill="url(#b)" rx="10.144" ry="10.144"/><path fill="#fff" d="m 21,1020.3622 0,1.9981 0,4.0019 -1,0 0,-3.6855 a 11.538618,11.526427 0 0 0 -1.94922,0.916 11.538618,11.526427 0 0 0 -5.54297,8.7695 l 22.92578,0 a 11.538618,11.526427 0 0 1 0.0664,1 11.538618,11.526427 0 0 0 -5.83984,-9.8964 A 11.538618,11.526427 0 0 0 28,1022.7079 l 0,3.6543 -1,0 0,-3.9902 0,-2.0098 -2.53516,0 0,3 -1,0 0,-3 -2.46484,0 z m 6,2.0098 a 11.538618,11.526427 0 0 1 0.78516,0.252 A 11.538618,11.526427 0 0 0 27,1022.372 Z m 8.5,10.9902 -23.06055,0 -1.43945,0 c -0.55401,0 -1,0.446 -1,1 l 0,1 c 0,0.554 0.44599,1 1,1 l 26,0 c 0.55401,0 1,-0.446 1,-1 l 0,-1 c 0,-0.554 -0.44599,-1 -1,-1 l -1.5,0 z m -23.06055,0 a 11.538618,11.526427 0 0 1 0.0234,-0.4511 11.538618,11.526427 0 0 0 -0.0234,0.4511 z m 11.52539,-6 a 2.0000086,2.0000086 0 0 1 2,2 2.0000086,2.0000086 0 0 1 -2,2 2.0000086,2.0000086 0 0 1 -2,-2 2.0000086,2.0000086 0 0 1 2,-2 z"/></g></svg>